<?xml version="1.0" standalone="no"?><!DOCTYPE svg PUBLIC "-//W3C//DTD SVG 1.1//EN" "http://www.w3.org/Graphics/SVG/1.1/DTD/svg11.dtd"><svg t="1599492112290" class="icon" viewBox="0 0 1024 1024" version="1.1" xmlns="http://www.w3.org/2000/svg" p-id="5445" xmlns:xlink="http://www.w3.org/1999/xlink" width="200" height="200"><defs><style type="text/css"></style></defs><path d="M184.888889 1024A128 128 0 0 1 56.888889 896V128A128 128 0 0 1 184.888889 0H824.888889v128h128V1024H184.888889z m192-512H312.888889v128h64V512z m128-256H440.888889v384h64V256z m128 128H568.888889v256h64v-256z m64 320H248.888889V256H184.888889v512h512v-64z m192-512H824.888889V896H202.524444a127.488 127.488 0 0 0 110.364445 64h576v-768z" p-id="5446"></path></svg>