<?xml version="1.0" standalone="no"?><!DOCTYPE svg PUBLIC "-//W3C//DTD SVG 1.1//EN" "http://www.w3.org/Graphics/SVG/1.1/DTD/svg11.dtd"><svg t="1599492004903" class="icon" viewBox="0 0 1024 1024" version="1.1" xmlns="http://www.w3.org/2000/svg" p-id="3938" xmlns:xlink="http://www.w3.org/1999/xlink" width="200" height="200"><defs><style type="text/css"></style></defs><path d="M224.512 561.792v109.312c0 60.352 48.832 109.312 108.992 109.312h109.056c60.16 0 108.992-48.96 108.992-109.312V561.792c0-12.032-1.92-23.488-5.44-34.304 88.96 23.872 160.192 44.992 190.848 84.736 16.704 21.696 32.896 120.064 48.448 295.168 0 60.416 11.776 91.904-48.448 91.904H45.12c-60.16 0-42.816-27.712-42.816-91.904s20.16-260.8 56.896-297.088c28.928-28.544 104.448-65.024 170.752-82.816a110.144 110.144 0 0 0-5.44 34.304z m144.192-5.12h39.808a12.8 12.8 0 0 1 12.288 9.024l37.696 124.16a12.8 12.8 0 0 1-12.288 16.512H331.136a12.8 12.8 0 0 1-12.288-16.512l37.632-124.16a12.8 12.8 0 0 1 12.224-9.088z m24.128-98.176a229.248 229.248 0 1 1 0-458.496 229.248 229.248 0 0 1 0 458.496z m495.552 390.4v-85.504c0-36.736-1.408-80.256-21.888-112.704-45.824-72.704-169.792-119.424-287.104-152.32a323.776 323.776 0 0 0 110.72-244.352 323.84 323.84 0 0 0-42.88-161.6c122.432 8.448 219.264 113.92 219.264 242.688a245.12 245.12 0 0 1-103.872 201.792c75.52 15.04 141.184 42.624 189.952 78.592 37.696 27.712 61.44 105.536 71.424 233.344 0 29.888-7.424 54.72-39.936 54.72H866.56c10.624-16.512 21.888-35.456 21.888-54.72z" p-id="3939"></path></svg>